<?xml version="1.0"?>
<svg width="172" height="40" xmlns="http://www.w3.org/2000/svg" xmlns:svg="http://www.w3.org/2000/svg">
 <style>.B{fill-rule:evenodd}</style>
 <defs>
  <clipPath id="A">
   <path d="m0,0l172,0l0,40l-172,0l0,-40z" fill="#fff" id="svg_1"/>
  </clipPath>
 </defs>
 <g class="layer">
  <title>Layer 1</title>
  <g clip-path="url(#A)" id="svg_2">
   <g fill="#f75d34" id="svg_3">
    <path d="m23.73,38.86c9.48,-1.66 16.69,-9.94 16.69,-19.89s-7.21,-18.23 -16.69,-19.91l-2.19,12.43a7.58,7.58 0 0 1 6.26,7.47c0,3.73 -2.71,6.84 -6.26,7.46l2.19,12.44zm-7.01,0.01l2.19,-12.43a7.6,7.6 0 0 1 -6.26,-7.44c0,-3.73 2.71,-6.84 6.26,-7.46l-2.19,-12.44c-9.48,1.65 -16.69,9.94 -16.69,19.89s7.21,18.21 16.69,19.88z" id="svg_4"/>
   </g>
   <g fill="#24272c" id="svg_5">
    <path d="m48.42,19.26c0,-5.71 4.24,-10.08 10.09,-10.08c3.52,0 6.62,1.76 8.31,4.5l-3.83,2.22c-0.86,-1.5 -2.51,-2.39 -4.48,-2.39c-3.43,0 -5.65,2.3 -5.65,5.77s2.22,5.76 5.65,5.76c1.97,0 3.66,-0.89 4.48,-2.39l3.83,2.22c-1.66,2.74 -4.76,4.5 -8.31,4.5c-5.85,-0.02 -10.09,-4.4 -10.09,-10.11z" fill="#ffffff" id="svg_6"/>
    <path class="B" d="m159.22,37.65c-0.49,0 -0.93,-0.11 -1.34,-0.34a2.56,2.56 0 0 1 -0.97,-0.94c-0.23,-0.41 -0.35,-0.87 -0.35,-1.38s0.12,-0.96 0.35,-1.36s0.56,-0.72 0.97,-0.95s0.85,-0.34 1.34,-0.34a2.66,2.66 0 0 1 1.34,0.34c0.4,0.23 0.72,0.54 0.96,0.95s0.35,0.85 0.35,1.36a2.67,2.67 0 0 1 -0.35,1.38a2.51,2.51 0 0 1 -0.96,0.94a2.69,2.69 0 0 1 -1.34,0.34zm0,-0.93c0.31,0 0.59,-0.07 0.82,-0.21a1.48,1.48 0 0 0 0.56,-0.6c0.14,-0.27 0.2,-0.57 0.2,-0.92s-0.06,-0.65 -0.2,-0.91a1.43,1.43 0 0 0 -0.56,-0.6a1.6,1.6 0 0 0 -0.82,-0.21a1.65,1.65 0 0 0 -0.83,0.21c-0.24,0.14 -0.43,0.34 -0.56,0.6a1.94,1.94 0 0 0 -0.2,0.91c0,0.35 0.07,0.65 0.2,0.92s0.32,0.46 0.56,0.6a1.65,1.65 0 0 0 0.83,0.21z" fill="#ffffff" id="svg_7"/>
    <path d="m163.46,37.47c0.29,0.12 0.61,0.18 0.98,0.18c0.38,0 0.71,-0.07 0.99,-0.21s0.48,-0.33 0.63,-0.57s0.21,-0.49 0.21,-0.77c0,-0.32 -0.07,-0.58 -0.23,-0.78s-0.33,-0.35 -0.55,-0.45a6.03,6.03 0 0 0 -0.82,-0.3l-0.58,-0.19a1.19,1.19 0 0 1 -0.34,-0.22a0.49,0.49 0 0 1 -0.14,-0.35c0,-0.2 0.06,-0.35 0.18,-0.45s0.29,-0.16 0.49,-0.16c0.23,0 0.42,0.06 0.56,0.18a0.58,0.58 0 0 1 0.23,0.44l1.14,0c-0.03,-0.47 -0.22,-0.83 -0.55,-1.09s-0.77,-0.39 -1.3,-0.39c-0.36,0 -0.68,0.06 -0.96,0.18s-0.49,0.3 -0.64,0.52a1.4,1.4 0 0 0 -0.23,0.81c0,0.32 0.07,0.59 0.22,0.79c0.15,0.19 0.33,0.33 0.54,0.43s0.49,0.2 0.83,0.29l0.58,0.2c0.14,0.05 0.26,0.13 0.35,0.23s0.15,0.22 0.15,0.38c0,0.18 -0.07,0.34 -0.21,0.46s-0.33,0.17 -0.57,0.17s-0.43,-0.06 -0.57,-0.19a0.73,0.73 0 0 1 -0.22,-0.5l-1.12,0c0.01,0.31 0.09,0.59 0.26,0.82s0.4,0.41 0.69,0.54z" fill="#ffffff" id="svg_8"/>
    <g class="B" id="svg_9">
     <path d="m167.95,37.6l0.34,-0.99l2.07,0l0.34,0.99l1.1,0l-1.87,-5.2l-1.21,0l-1.86,5.2l1.09,0zm1.37,-3.99l0.75,2.17l-1.5,0l0.75,-2.17zm-15.74,1.97l1.14,2.02l1.21,0l-1.24,-2.11c0.39,-0.1 0.68,-0.29 0.88,-0.56c0.2,-0.28 0.3,-0.59 0.3,-0.93a1.52,1.52 0 0 0 -0.22,-0.8a1.42,1.42 0 0 0 -0.63,-0.57a2.32,2.32 0 0 0 -1.03,-0.22l-1.94,0l0,5.19l1.04,0l0,-2.02l0.49,0zm0.38,-0.78l-0.87,0l0,-1.53l0.87,0c0.28,0 0.49,0.07 0.63,0.2s0.21,0.31 0.21,0.55c0,0.25 -0.07,0.44 -0.21,0.57s-0.35,0.21 -0.63,0.21zm-4.05,1.81l-2.07,0l-0.34,0.99l-1.09,0l1.86,-5.2l1.21,0l1.87,5.2l-1.1,0l-0.34,-0.99zm-0.28,-0.83l-0.76,-2.17l-0.75,2.17l1.51,0z" fill="#ffffff" id="svg_10"/>
    </g>
    <path d="m145.7,37.6l0,-5.19l-1.04,0l0,2.13l-2.22,0l0,-2.13l-1.04,0l0,5.19l1.04,0l0,-2.21l2.22,0l0,2.21l1.04,0z" fill="#ffffff" id="svg_11"/>
    <g class="B" id="svg_12">
     <path d="m139.56,34.94a1.17,1.17 0 0 1 0.73,0.44a1.28,1.28 0 0 1 0.28,0.82c0,0.27 -0.07,0.52 -0.21,0.73s-0.33,0.37 -0.59,0.49s-0.56,0.18 -0.91,0.18l-2.24,0l0,-5.19l2.14,0c0.35,0 0.66,0.06 0.91,0.17a1.27,1.27 0 0 1 0.58,0.48c0.13,0.2 0.2,0.43 0.2,0.69c0,0.3 -0.08,0.55 -0.25,0.76a1.27,1.27 0 0 1 -0.63,0.43l-0.01,0zm-1.9,-0.39l0.95,0c0.25,0 0.44,-0.05 0.58,-0.16s0.2,-0.28 0.2,-0.48s-0.07,-0.37 -0.2,-0.49s-0.33,-0.17 -0.58,-0.17l-0.95,0l0,1.3zm1.05,2.2c0.25,0 0.45,-0.06 0.59,-0.18s0.21,-0.28 0.21,-0.5s-0.07,-0.4 -0.22,-0.52s-0.35,-0.2 -0.6,-0.2l-1.03,0l0,1.4l1.05,0zm-8.06,-0.14l2.06,0l0.34,0.99l1.1,0l-1.86,-5.2l-1.21,0l-1.87,5.2l1.09,0l0.35,-0.99zm1.03,-3l0.75,2.17l-1.5,0l0.75,-2.17z" fill="#ffffff" id="svg_13"/>
    </g>
    <path d="m127.53,37.6l-1.89,-2.31l0,2.31l-1.04,0l0,-5.19l1.04,0l0,2.33l1.89,-2.33l1.25,0l-2.14,2.57l2.2,2.62l-1.31,0z" fill="#ffffff" id="svg_14"/>
    <path class="B" d="m118.62,36.61l2.07,0l0.34,0.99l1.1,0l-1.87,-5.2l-1.21,0l-1.86,5.2l1.09,0l0.34,-0.99zm1.04,-3l0.75,2.17l-1.5,0l0.75,-2.17z" fill="#ffffff" id="svg_15"/>
    <path d="m116.48,32.41l0,5.19l-1.04,0l0,-5.19l1.04,0z" fill="#ffffff" id="svg_16"/>
    <path class="B" d="m113.36,32.73c-0.41,-0.21 -0.89,-0.32 -1.44,-0.32l-1.81,0l0,5.19l1.81,0c0.55,0 1.03,-0.11 1.44,-0.32s0.73,-0.51 0.96,-0.9c0.23,-0.39 0.34,-0.85 0.34,-1.37s-0.11,-0.97 -0.34,-1.37a2.25,2.25 0 0 0 -0.96,-0.91zm-0.21,3.54c-0.3,0.29 -0.72,0.44 -1.26,0.44l-0.74,0l0,-3.42l0.74,0c0.54,0 0.96,0.15 1.26,0.46s0.45,0.72 0.45,1.26s-0.15,0.96 -0.45,1.26z" fill="#ffffff" id="svg_17"/>
    <path d="m109.08,37.6l-1.04,0l-2.36,-3.56l0,3.56l-1.04,0l0,-5.2l1.04,0l2.36,3.57l0,-3.57l1.04,0l0,5.2zm-5.47,0l0,-5.19l-1.04,0l0,5.19l1.04,0zm-5.72,-4.35l0,1.3l1.74,0l0,0.83l-1.74,0l0,1.37l1.97,0l0,0.85l-3.01,0l0,-5.2l3.01,0l0,0.85l-1.97,0zm-1.8,0l0,-0.84l-3.81,0l0,0.84l1.39,0l0,4.35l1.04,0l0,-4.35l1.38,0zm-4.56,-0.84l0,5.19l-1.04,0l0,-2.21l-2.22,0l0,2.21l-1.04,0l0,-5.19l1.04,0l0,2.13l2.22,0l0,-2.13l1.04,0z" fill="#ffffff" id="svg_18"/>
    <g class="B" id="svg_19">
     <path d="m85.15,32.73c-0.41,-0.21 -0.89,-0.32 -1.44,-0.32l-1.81,0l0,5.19l1.81,0c0.55,0 1.02,-0.11 1.44,-0.32s0.73,-0.51 0.96,-0.9s0.34,-0.85 0.34,-1.37s-0.12,-0.97 -0.34,-1.37a2.25,2.25 0 0 0 -0.96,-0.91zm-0.21,3.54c-0.3,0.29 -0.72,0.44 -1.26,0.44l-0.74,0l0,-3.42l0.74,0c0.54,0 0.96,0.15 1.26,0.46s0.45,0.72 0.45,1.26s-0.15,0.96 -0.45,1.26zm-5.18,0.34l-2.07,0l-0.34,0.99l-1.09,0l1.86,-5.2l1.22,0l1.86,5.2l-1.1,0l-0.34,-0.99zm-0.28,-0.83l-0.75,-2.17l-0.75,2.17l1.5,0zm-4.01,-0.4a1.17,1.17 0 0 0 -0.72,-0.44c0.26,-0.09 0.48,-0.23 0.63,-0.43a1.17,1.17 0 0 0 0.25,-0.76a1.23,1.23 0 0 0 -0.2,-0.69c-0.13,-0.21 -0.32,-0.36 -0.58,-0.48s-0.56,-0.17 -0.91,-0.17l-2.14,0l0,5.19l2.24,0a2.16,2.16 0 0 0 0.91,-0.18a1.34,1.34 0 0 0 0.59,-0.49a1.32,1.32 0 0 0 0.21,-0.73a1.28,1.28 0 0 0 -0.28,-0.82zm-1.68,-0.83l-0.95,0l0,-1.3l0.95,0c0.25,0 0.44,0.06 0.58,0.17s0.2,0.28 0.2,0.48s-0.07,0.37 -0.2,0.49s-0.33,0.16 -0.58,0.16zm0.69,2.02c-0.14,0.12 -0.34,0.18 -0.59,0.18l-1.05,0l0,-1.4l1.03,0c0.25,0 0.45,0.07 0.6,0.2s0.22,0.29 0.22,0.52s-0.07,0.38 -0.21,0.5zm8.29,-7.19l0,-15.14l-4.3,0l0,1.76c-0.94,-1.09 -2.34,-1.76 -4.27,-1.76c-3.74,0 -6.84,3.3 -6.84,7.57s3.1,7.56 6.84,7.56c1.93,0 3.33,-0.67 4.27,-1.76l0,1.77l4.3,0zm-7.7,-11.08c1.98,0 3.4,1.34 3.4,3.49s-1.42,3.49 -3.4,3.49s-3.41,-1.34 -3.41,-3.49s1.43,-3.49 3.41,-3.49z" fill="#ffffff" id="svg_20"/>
    </g>
    <path d="m92.51,14.23l0,4.9c-1.8,-0.28 -4.34,0.44 -4.34,3.3l0,6.94l-4.34,0l0,-15.14l4.35,0l0,2.85c0.58,-1.93 2.52,-2.85 4.33,-2.85z" fill="#ffffff" id="svg_21"/>
    <g class="B" id="svg_22">
     <path d="m101.67,29.37c5.57,0 9.81,-4.39 9.81,-10.1s-4.24,-10.09 -9.81,-10.09l-8.09,0l0,20.19l8.09,0zm0,-15.75c3.18,0 5.37,2.19 5.37,5.66s-2.21,5.65 -5.37,5.65l-3.47,0l0,-11.31l3.47,0zm18.33,11.89c1.17,0 2.17,-0.45 2.75,-1.09l3.44,1.98c-1.4,1.95 -3.52,2.95 -6.25,2.95c-4.89,0 -7.93,-3.29 -7.93,-7.56s3.1,-7.56 7.62,-7.56c4.18,0 7.28,3.24 7.28,7.56a8.43,8.43 0 0 1 -0.17,1.73l-10.16,0c0.52,1.48 1.85,1.99 3.42,1.99zm2.64,-5.22c-0.45,-1.65 -1.75,-2.26 -3.04,-2.26c-1.62,0 -2.73,0.81 -3.12,2.26l6.16,0z" fill="#ffffff" id="svg_23"/>
    </g>
    <path d="m132.13,23.26l4.43,6.12l0,-0.01l4.69,0l-5.17,-7.8l5.05,-7.34l-4.85,0l-4.16,6.06l0,-11.11l-4.15,0l0,20.2l4.15,0l0,-6.12l0.01,0zm23.52,-3.29l0,9.41l-4.16,0l0,-8.81c0,-1.72 -1.07,-2.51 -2.4,-2.51c-1.53,0 -2.58,0.89 -2.58,2.85l0,8.47l-4.15,0l0,-20.2l4.15,0l0,6.75c0.75,-1.04 2.14,-1.7 3.96,-1.7c2.8,0 5.18,1.99 5.18,5.74z" fill="#ffffff" id="svg_24"/>
    <path class="B" d="m164.39,14.23c-4.21,0 -7.59,3.29 -7.59,7.56s3.38,7.56 7.59,7.56s7.59,-3.29 7.59,-7.56s-3.38,-7.56 -7.59,-7.56zm0,4.18c1.87,0 3.3,1.35 3.3,3.38s-1.43,3.38 -3.3,3.38s-3.29,-1.34 -3.29,-3.38s1.43,-3.38 3.29,-3.38z" fill="#ffffff" id="svg_25"/>
   </g>
  </g>
 </g>
</svg>